{
	"accessors" : 
	[
		{
			"bufferView" : 2,
			"byteOffset" : 0,
			"componentType" : 5126,
			"count" : 348,
			"max" : 
			[
				0.3488648533821106,
				0.3488648533821106,
				0.3488648533821106,
				1
			],
			"min" : 
			[
				0.006584956776350737,
				0.006584956776350737,
				0.006584956776350737,
				1
			],
			"name" : "accessor_color_m0-PolyPaper21_-377656",
			"type" : "VEC4"
		},
		{
			"bufferView" : 2,
			"byteOffset" : 5568,
			"componentType" : 5126,
			"count" : 3726,
			"max" : 
			[
				1,
				1,
				1,
				1
			],
			"min" : 
			[
				0.006584956776350737,
				0.006584956776350737,
				0.006584956776350737,
				1
			],
			"name" : "accessor_color_m1-PolyPaper20_-377662",
			"type" : "VEC4"
		},
		{
			"bufferView" : 2,
			"byteOffset" : 65184,
			"componentType" : 5126,
			"count" : 220,
			"max" : 
			[
				1,
				1,
				1,
				1
			],
			"min" : 
			[
				1,
				1,
				1,
				1
			],
			"name" : "accessor_color_m3-PolyGem25_-377674",
			"type" : "VEC4"
		},
		{
			"bufferView" : 0,
			"byteOffset" : 0,
			"componentType" : 5123,
			"count" : 600,
			"max" : 
			[
				347
			],
			"min" : 
			[
				0
			],
			"name" : "accessor_indices_0_m0-PolyPaper21_-377656",
			"type" : "SCALAR"
		},
		{
			"bufferView" : 0,
			"byteOffset" : 1200,
			"componentType" : 5123,
			"count" : 6240,
			"max" : 
			[
				3725
			],
			"min" : 
			[
				0
			],
			"name" : "accessor_indices_0_m1-PolyPaper20_-377662",
			"type" : "SCALAR"
		},
		{
			"bufferView" : 0,
			"byteOffset" : 13680,
			"componentType" : 5123,
			"count" : 300,
			"max" : 
			[
				219
			],
			"min" : 
			[
				0
			],
			"name" : "accessor_indices_0_m3-PolyGem25_-377674",
			"type" : "SCALAR"
		},
		{
			"bufferView" : 1,
			"byteOffset" : 4176,
			"componentType" : 5126,
			"count" : 348,
			"max" : 
			[
				1,
				1,
				1
			],
			"min" : 
			[
				-1,
				-1,
				-1
			],
			"name" : "accessor_normal_m0-PolyPaper21_-377656",
			"type" : "VEC3"
		},
		{
			"bufferView" : 1,
			"byteOffset" : 53064,
			"componentType" : 5126,
			"count" : 3726,
			"max" : 
			[
				1,
				1,
				1
			],
			"min" : 
			[
				-1,
				-1,
				-1
			],
			"name" : "accessor_normal_m1-PolyPaper20_-377662",
			"type" : "VEC3"
		},
		{
			"bufferView" : 1,
			"byteOffset" : 100416,
			"componentType" : 5126,
			"count" : 220,
			"max" : 
			[
				0.9992315000000001,
				0.9134227,
				0.9964371
			],
			"min" : 
			[
				-0.9699369,
				-0.9942421,
				-0.9476358
			],
			"name" : "accessor_normal_m3-PolyGem25_-377674",
			"type" : "VEC3"
		},
		{
			"bufferView" : 1,
			"byteOffset" : 0,
			"componentType" : 5126,
			"count" : 348,
			"max" : 
			[
				-0.1299917,
				2.130033,
				-0.09993104999999999
			],
			"min" : 
			[
				-0.550047,
				1.619967,
				-0.7600498
			],
			"name" : "accessor_position_m0-PolyPaper21_-377656",
			"type" : "VEC3"
		},
		{
			"bufferView" : 1,
			"byteOffset" : 8352,
			"componentType" : 5126,
			"count" : 3726,
			"max" : 
			[
				-0.005011495,
				2.130031,
				-0.07000257
			],
			"min" : 
			[
				-0.5500492,
				1.558525,
				-0.8286756
			],
			"name" : "accessor_position_m1-PolyPaper20_-377662",
			"type" : "VEC3"
		},
		{
			"bufferView" : 1,
			"byteOffset" : 97776,
			"componentType" : 5126,
			"count" : 220,
			"max" : 
			[
				0.02072096,
				1.622701,
				-0.6001741
			],
			"min" : 
			[
				-0.1469561,
				1.558798,
				-0.8090765
			],
			"name" : "accessor_position_m3-PolyGem25_-377674",
			"type" : "VEC3"
		}
	],
	"asset" : 
	{
		"copyright" : "Unknown",
		"generator" : "glTF 1-to-2 Upgrader for Google Blocks",
		"version" : "2.0"
	},
	"bufferViews" : 
	[
		{
			"buffer" : 0,
			"byteLength" : 14280,
			"byteOffset" : 0,
			"name" : "ushortBufferView",
			"target" : 34963
		},
		{
			"buffer" : 0,
			"byteLength" : 103056,
			"byteOffset" : 14280,
			"byteStride" : 12,
			"name" : "vec3BufferView",
			"target" : 34962
		},
		{
			"buffer" : 0,
			"byteLength" : 68704,
			"byteOffset" : 117336,
			"byteStride" : 16,
			"name" : "vec4BufferView",
			"target" : 34962
		}
	],
	"buffers" : 
	[
		{
			"byteLength" : 186040,
			"name" : "model",
			"uri" : "model.bin"
		}
	],
	"materials" : 
	[
		{
			"alphaMode" : "OPAQUE",
			"doubleSided" : false,
			"name" : "BlocksPaper",
			"pbrMetallicRoughness" : 
			{
				"baseColorFactor" : 
				[
					1,
					1,
					1,
					1
				],
				"metallicFactor" : 0,
				"roughnessFactor" : 0.6
			}
		},
		{
			"alphaMode" : "BLEND",
			"doubleSided" : false,
			"name" : "BlocksGlass",
			"pbrMetallicRoughness" : 
			{
				"baseColorFactor" : 
				[
					0.2,
					0.2,
					1,
					0.3
				],
				"metallicFactor" : 1,
				"roughnessFactor" : 0.4
			}
		},
		{
			"alphaMode" : "OPAQUE",
			"doubleSided" : true,
			"name" : "BlocksGem",
			"pbrMetallicRoughness" : 
			{
				"baseColorFactor" : 
				[
					1,
					0.4,
					1,
					1
				],
				"metallicFactor" : 0,
				"roughnessFactor" : 0.1
			}
		}
	],
	"meshes" : 
	[
		{
			"name" : "mesh_m0-PolyPaper21_-377656",
			"primitives" : 
			[
				{
					"attributes" : 
					{
						"COLOR_0" : 0,
						"NORMAL" : 6,
						"POSITION" : 9
					},
					"indices" : 3,
					"material" : 0,
					"mode" : 4
				}
			]
		},
		{
			"name" : "mesh_m1-PolyPaper20_-377662",
			"primitives" : 
			[
				{
					"attributes" : 
					{
						"COLOR_0" : 1,
						"NORMAL" : 7,
						"POSITION" : 10
					},
					"indices" : 4,
					"material" : 0,
					"mode" : 4
				}
			]
		},
		{
			"name" : "mesh_m3-PolyGem25_-377674",
			"primitives" : 
			[
				{
					"attributes" : 
					{
						"COLOR_0" : 2,
						"NORMAL" : 8,
						"POSITION" : 11
					},
					"indices" : 5,
					"material" : 2,
					"mode" : 4
				}
			]
		}
	],
	"nodes" : 
	[
		{
			"matrix" : 
			[
				1,
				0,
				0,
				0,
				0,
				1,
				0,
				0,
				0,
				0,
				1,
				0,
				0,
				0,
				0,
				1
			],
			"mesh" : 2,
			"name" : "node_MeshObject-1764322304-PolyGem25"
		},
		{
			"matrix" : 
			[
				1,
				0,
				0,
				0,
				0,
				1,
				0,
				0,
				0,
				0,
				1,
				0,
				0,
				0,
				0,
				1
			],
			"mesh" : 1,
			"name" : "node_MeshObject1386486784-PolyPaper20"
		},
		{
			"matrix" : 
			[
				1,
				0,
				0,
				0,
				0,
				1,
				0,
				0,
				0,
				0,
				1,
				0,
				0,
				0,
				0,
				1
			],
			"mesh" : 0,
			"name" : "node_MeshObject814407680-PolyPaper21"
		}
	],
	"scene" : 0,
	"scenes" : 
	[
		{
			"extras" : {},
			"name" : "defaultScene",
			"nodes" : 
			[
				2,
				1,
				0
			]
		}
	]
}